<svg version="1.1" id="Layer_1" xmlns="http://www.w3.org/2000/svg" xmlns:xlink="http://www.w3.org/1999/xlink" x="0px" y="0px"
	 width="100%" viewBox="0 0 339 249" enable-background="new 0 0 339 249" xml:space="preserve">
<path fill="#010101" opacity="1.000000" stroke="none" 
	d="
M203.000000,250.000000 
	C135.361893,250.000000 68.223778,250.000000 1.042835,250.000000 
	C1.042835,167.063858 1.042835,84.127701 1.042835,1.095767 
	C113.888039,1.095767 226.776184,1.095767 339.832153,1.095767 
	C339.832153,83.999725 339.832153,166.999832 339.832153,250.000000 
	C294.461151,250.000000 248.980576,250.000000 203.000000,250.000000 
M172.010880,246.191528 
	C180.578110,246.543243 189.671600,248.029541 192.758148,236.562256 
	C192.796829,236.418518 192.981415,236.319107 193.079834,236.185684 
	C206.175095,218.435791 223.994476,206.574722 243.408813,197.165253 
	C265.239166,186.584808 287.430328,176.764130 307.369019,162.715027 
	C316.004669,156.630219 330.387451,144.219025 334.366058,131.613937 
	C329.025360,134.599579 324.080750,137.482468 319.029663,140.164719 
	C305.370850,147.417831 291.375488,153.831207 275.902222,156.043320 
	C275.655518,155.426163 275.298370,154.829727 275.178070,154.188843 
	C271.201080,133.000992 261.497803,114.616669 246.550781,99.349869 
	C233.502121,86.022041 217.907715,76.463936 199.712723,71.172066 
	C168.670181,62.143593 139.195953,66.094124 111.969429,82.731094 
	C84.660942,99.418152 68.229195,124.367897 61.141956,155.804077 
	C41.942303,150.919495 24.681961,141.586411 7.279047,132.175568 
	C9.806752,137.006134 12.354996,141.658310 15.742121,145.587280 
	C27.860609,159.644424 43.272289,169.442154 59.521351,177.903503 
	C74.662804,185.788101 90.245750,192.829132 105.340332,200.798401 
	C124.787003,211.065384 142.354630,223.647934 153.445175,243.474457 
	C154.124588,244.689072 155.871780,245.968765 157.189423,246.044281 
	C161.815277,246.309357 166.470551,246.060944 172.010880,246.191528 
M75.067833,225.639175 
	C89.730644,225.639175 104.393456,225.639175 119.056267,225.639175 
	C101.950592,210.541809 82.631737,200.115875 61.240017,192.184937 
	C63.866619,202.937119 67.190369,213.279922 70.765358,223.535141 
	C71.106644,224.514145 73.016655,224.946289 75.067833,225.639175 
M272.563202,214.146194 
	C274.597504,207.024841 276.631805,199.903488 278.984619,191.667236 
	C257.689941,200.744400 238.808838,210.855804 222.237183,225.058319 
	C234.567566,225.645859 246.668304,225.645355 258.769043,225.645996 
	C269.031616,225.646545 269.031982,225.647247 272.000122,215.834259 
	C272.096436,215.515900 272.167603,215.189926 272.563202,214.146194 
M254.252380,90.902000 
	C263.306824,81.176048 272.361542,71.450348 281.415558,61.724018 
	C284.217621,58.713913 284.798615,55.538952 281.517944,52.605598 
	C278.107300,49.555992 275.141327,51.132950 272.476227,53.995102 
	C263.538330,63.593929 254.632050,73.222923 245.614349,82.746315 
	C242.794800,85.723991 241.032623,88.878517 244.267609,92.287811 
	C247.450562,95.642273 250.836349,94.561417 254.252380,90.902000 
M31.038790,96.594635 
	C29.875868,95.948257 28.734135,95.259705 27.546305,94.662910 
	C22.794033,92.275276 19.827415,92.934639 17.877016,96.774841 
	C16.181505,100.113174 17.789091,103.119888 22.322935,105.275101 
	C27.120005,107.555450 31.868694,109.937592 36.666405,112.216560 
	C44.305637,115.845291 51.932102,119.504738 59.637527,122.988495 
	C62.897110,124.462212 65.657242,123.099274 67.213120,120.164711 
	C68.751976,117.262260 67.881523,114.540810 64.842041,113.039368 
	C53.834766,107.602020 42.775486,102.269966 31.038790,96.594635 
M281.222229,125.706886 
	C292.549042,120.174187 303.888214,114.666626 315.196564,109.096466 
	C319.751556,106.852829 321.223114,103.684822 319.591278,100.036385 
	C318.205750,96.938629 314.610291,96.304863 310.005096,98.522621 
	C298.340027,104.140297 286.696472,109.802956 275.065399,115.490685 
	C270.376526,117.783592 269.036621,120.791672 270.874359,124.549217 
	C272.725189,128.333633 275.299286,128.727127 281.222229,125.706886 
M129.024521,47.362232 
	C125.555824,37.859997 122.008804,28.385288 118.655235,18.842594 
	C117.223190,14.767655 114.292747,13.982294 110.756180,15.002329 
	C106.902657,16.113779 106.446793,19.193411 107.415833,22.612463 
	C107.911316,24.360641 108.583717,26.060812 109.217682,27.767252 
	C113.491188,39.270081 117.674820,50.807987 122.115448,62.246059 
	C123.535919,65.904877 126.740044,67.060463 130.329117,65.580063 
	C133.832779,64.134903 134.713837,61.311565 133.229156,57.770367 
	C131.882233,54.557766 130.608490,51.314480 129.024521,47.362232 
M214.440872,68.295311 
	C215.507538,66.838531 216.947296,65.527222 217.581131,63.901665 
	C222.158310,52.162754 226.612534,40.375149 230.996246,28.562346 
	C231.678162,26.724819 232.492859,24.483376 232.007812,22.781700 
	C231.413239,20.695789 229.723938,17.692759 228.127884,17.434446 
	C226.159073,17.115808 222.504959,18.679695 221.813187,20.353451 
	C216.370102,33.522774 211.227921,46.830711 206.493332,60.272160 
	C204.366882,66.309181 207.252365,69.208878 214.440872,68.295311 
M61.182838,63.299973 
	C68.707909,71.281342 76.203415,79.291023 83.791199,87.212318 
	C84.879028,88.347961 86.488449,89.891785 87.722809,89.779335 
	C89.903580,89.580666 92.658020,88.819359 93.953018,87.272659 
	C96.221611,84.563126 94.695488,81.634323 92.492706,79.271614 
	C83.432999,69.554131 74.382919,59.827381 65.258026,50.171375 
	C64.272423,49.128391 62.795017,47.816223 61.596886,47.865776 
	C59.330036,47.959522 56.014805,48.293591 55.136959,49.741474 
	C54.098885,51.453621 54.541103,54.749832 55.510567,56.809078 
	C56.587143,59.095856 58.982105,60.761959 61.182838,63.299973 
M175.285522,13.892509 
	C174.153366,11.890326 173.504318,8.960884 171.793427,8.069488 
	C167.594620,5.881857 164.006454,8.898089 163.969620,14.361886 
	C163.879868,27.672045 163.974472,40.983345 163.928360,54.293957 
	C163.914444,58.313274 164.664810,61.780285 169.476395,62.179680 
	C173.540558,62.517044 175.271240,60.106216 175.291809,54.242706 
	C175.337875,41.098484 175.300323,27.953972 175.285522,13.892509 
z"/>
<path fill="#FDCA2C" opacity="1.000000" stroke="none" 
	d="
M61.894764,155.831467 
	C68.229195,124.367897 84.660942,99.418152 111.969429,82.731094 
	C139.195953,66.094124 168.670181,62.143593 199.712723,71.172066 
	C217.907715,76.463936 233.502121,86.022041 246.550781,99.349869 
	C261.497803,114.616669 271.201080,133.000992 275.178070,154.188843 
	C275.298370,154.829727 275.655518,155.426163 275.625641,156.589447 
	C272.767639,157.761230 270.210938,158.525589 267.600830,158.990036 
	C250.586594,162.017517 233.425385,164.373840 216.577805,168.138290 
	C200.515732,171.727203 184.788681,176.789078 171.558563,187.637512 
	C166.961212,184.695190 162.911880,181.315308 158.280029,179.228241 
	C138.474335,170.304016 117.639259,164.979721 96.132744,161.954605 
	C84.659988,160.340836 73.303650,157.899368 61.894764,155.831467 
M189.054794,108.619156 
	C187.598404,106.815201 186.130112,105.020706 184.687607,103.205704 
	C176.758102,93.228622 159.544083,93.185265 150.653824,105.610977 
	C141.860489,117.901230 141.517258,133.974716 149.735153,146.847137 
	C154.883224,154.911026 162.144089,159.113464 171.541122,157.867615 
	C181.051544,156.606735 187.196762,150.384949 190.745163,141.641479 
	C195.196487,130.673157 194.385788,119.871765 189.054794,108.619156 
z"/>
<path fill="#52AED8" opacity="1.000000" stroke="none" 
	d="
M61.518360,155.817780 
	C73.303650,157.899368 84.659988,160.340836 96.132744,161.954605 
	C117.639259,164.979721 138.474335,170.304016 158.280029,179.228241 
	C162.911880,181.315308 166.961212,184.695190 171.583710,188.116379 
	C171.630783,207.837479 171.372711,226.922455 171.114655,246.007446 
	C166.470551,246.060944 161.815277,246.309357 157.189423,246.044281 
	C155.871780,245.968765 154.124588,244.689072 153.445175,243.474457 
	C142.354630,223.647934 124.787003,211.065384 105.340332,200.798401 
	C90.245750,192.829132 74.662804,185.788101 59.521351,177.903503 
	C43.272289,169.442154 27.860609,159.644424 15.742121,145.587280 
	C12.354996,141.658310 9.806752,137.006134 7.279047,132.175568 
	C24.681961,141.586411 41.942303,150.919495 61.518360,155.817780 
z"/>
<path fill="#2F82BF" opacity="1.000000" stroke="none" 
	d="
M171.562775,246.099487 
	C171.372711,226.922455 171.630783,207.837479 171.863708,188.273621 
	C184.788681,176.789078 200.515732,171.727203 216.577805,168.138290 
	C233.425385,164.373840 250.586594,162.017517 267.600830,158.990036 
	C270.210938,158.525589 272.767639,157.761230 275.698425,156.958359 
	C291.375488,153.831207 305.370850,147.417831 319.029663,140.164719 
	C324.080750,137.482468 329.025360,134.599579 334.366058,131.613937 
	C330.387451,144.219025 316.004669,156.630219 307.369019,162.715027 
	C287.430328,176.764130 265.239166,186.584808 243.408813,197.165253 
	C223.994476,206.574722 206.175095,218.435791 193.079834,236.185684 
	C192.981415,236.319107 192.796829,236.418518 192.758148,236.562256 
	C189.671600,248.029541 180.578110,246.543243 171.562775,246.099487 
z"/>
<path fill="#E97C06" opacity="1.000000" stroke="none" 
	d="
M74.633118,225.635742 
	C73.016655,224.946289 71.106644,224.514145 70.765358,223.535141 
	C67.190369,213.279922 63.866619,202.937119 61.240017,192.184937 
	C82.631737,200.115875 101.950592,210.541809 119.056267,225.639175 
	C104.393456,225.639175 89.730644,225.639175 74.633118,225.635742 
z"/>
<path fill="#E97C06" opacity="1.000000" stroke="none" 
	d="
M272.406860,214.506851 
	C272.167603,215.189926 272.096436,215.515900 272.000122,215.834259 
	C269.031982,225.647247 269.031616,225.646545 258.769043,225.645996 
	C246.668304,225.645355 234.567566,225.645859 222.237183,225.058319 
	C238.808838,210.855804 257.689941,200.744400 278.984619,191.667236 
	C276.631805,199.903488 274.597504,207.024841 272.406860,214.506851 
z"/>
<path fill="#F8C62E" opacity="1.000000" stroke="none" 
	d="
M254.008957,91.183792 
	C250.836349,94.561417 247.450562,95.642273 244.267609,92.287811 
	C241.032623,88.878517 242.794800,85.723991 245.614349,82.746315 
	C254.632050,73.222923 263.538330,63.593929 272.476227,53.995102 
	C275.141327,51.132950 278.107300,49.555992 281.517944,52.605598 
	C284.798615,55.538952 284.217621,58.713913 281.415558,61.724018 
	C272.361542,71.450348 263.306824,81.176048 254.008957,91.183792 
z"/>
<path fill="#F7C62E" opacity="1.000000" stroke="none" 
	d="
M31.387312,96.746414 
	C42.775486,102.269966 53.834766,107.602020 64.842041,113.039368 
	C67.881523,114.540810 68.751976,117.262260 67.213120,120.164711 
	C65.657242,123.099274 62.897110,124.462212 59.637527,122.988495 
	C51.932102,119.504738 44.305637,115.845291 36.666405,112.216560 
	C31.868694,109.937592 27.120005,107.555450 22.322935,105.275101 
	C17.789091,103.119888 16.181505,100.113174 17.877016,96.774841 
	C19.827415,92.934639 22.794033,92.275276 27.546305,94.662910 
	C28.734135,95.259705 29.875868,95.948257 31.387312,96.746414 
z"/>
<path fill="#F7C62E" opacity="1.000000" stroke="none" 
	d="
M280.878601,125.866440 
	C275.299286,128.727127 272.725189,128.333633 270.874359,124.549217 
	C269.036621,120.791672 270.376526,117.783592 275.065399,115.490685 
	C286.696472,109.802956 298.340027,104.140297 310.005096,98.522621 
	C314.610291,96.304863 318.205750,96.938629 319.591278,100.036385 
	C321.223114,103.684822 319.751556,106.852829 315.196564,109.096466 
	C303.888214,114.666626 292.549042,120.174187 280.878601,125.866440 
z"/>
<path fill="#F8C62E" opacity="1.000000" stroke="none" 
	d="
M129.163513,47.723480 
	C130.608490,51.314480 131.882233,54.557766 133.229156,57.770367 
	C134.713837,61.311565 133.832779,64.134903 130.329117,65.580063 
	C126.740044,67.060463 123.535919,65.904877 122.115448,62.246059 
	C117.674820,50.807987 113.491188,39.270081 109.217682,27.767252 
	C108.583717,26.060812 107.911316,24.360641 107.415833,22.612463 
	C106.446793,19.193411 106.902657,16.113779 110.756180,15.002329 
	C114.292747,13.982294 117.223190,14.767655 118.655235,18.842594 
	C122.008804,28.385288 125.555824,37.859997 129.163513,47.723480 
z"/>
<path fill="#F8C72E" opacity="1.000000" stroke="none" 
	d="
M214.118347,68.517799 
	C207.252365,69.208878 204.366882,66.309181 206.493332,60.272160 
	C211.227921,46.830711 216.370102,33.522774 221.813187,20.353451 
	C222.504959,18.679695 226.159073,17.115808 228.127884,17.434446 
	C229.723938,17.692759 231.413239,20.695789 232.007812,22.781700 
	C232.492859,24.483376 231.678162,26.724819 230.996246,28.562346 
	C226.612534,40.375149 222.158310,52.162754 217.581131,63.901665 
	C216.947296,65.527222 215.507538,66.838531 214.118347,68.517799 
z"/>
<path fill="#F8C62E" opacity="1.000000" stroke="none" 
	d="
M60.992943,62.999138 
	C58.982105,60.761959 56.587143,59.095856 55.510567,56.809078 
	C54.541103,54.749832 54.098885,51.453621 55.136959,49.741474 
	C56.014805,48.293591 59.330036,47.959522 61.596886,47.865776 
	C62.795017,47.816223 64.272423,49.128391 65.258026,50.171375 
	C74.382919,59.827381 83.432999,69.554131 92.492706,79.271614 
	C94.695488,81.634323 96.221611,84.563126 93.953018,87.272659 
	C92.658020,88.819359 89.903580,89.580666 87.722809,89.779335 
	C86.488449,89.891785 84.879028,88.347961 83.791199,87.212318 
	C76.203415,79.291023 68.707909,71.281342 60.992943,62.999138 
z"/>
<path fill="#FDCA2C" opacity="1.000000" stroke="none" 
	d="
M175.291168,14.351044 
	C175.300323,27.953972 175.337875,41.098484 175.291809,54.242706 
	C175.271240,60.106216 173.540558,62.517044 169.476395,62.179680 
	C164.664810,61.780285 163.914444,58.313274 163.928360,54.293957 
	C163.974472,40.983345 163.879868,27.672045 163.969620,14.361886 
	C164.006454,8.898089 167.594620,5.881857 171.793427,8.069488 
	C173.504318,8.960884 174.153366,11.890326 175.291168,14.351044 
z"/>
<path fill="#020201" opacity="1.000000" stroke="none" 
	d="
M189.243713,108.940186 
	C194.385788,119.871765 195.196487,130.673157 190.745163,141.641479 
	C187.196762,150.384949 181.051544,156.606735 171.541122,157.867615 
	C162.144089,159.113464 154.883224,154.911026 149.735153,146.847137 
	C141.517258,133.974716 141.860489,117.901230 150.653824,105.610977 
	C159.544083,93.185265 176.758102,93.228622 184.687607,103.205704 
	C186.130112,105.020706 187.598404,106.815201 189.243713,108.940186 
z"/>
</svg>