<svg width="339" height="249" xmlns="http://www.w3.org/2000/svg" xml:space="preserve" enable-background="new 0 0 339 249" version="1.1">

 <g>
  <title>Layer 1</title>
  <path id="svg_2" d="m61.89476,155.83147c6.33444,-31.46357 22.76618,-56.41332 50.07467,-73.10038c27.22652,-16.63697 56.70075,-20.5875 87.74329,-11.55902c18.19499,5.29187 33.7894,14.84997 46.83806,28.1778c14.94702,15.2668 24.6503,33.65112 28.62729,54.83897c0.1203,0.64089 0.47745,1.23732 0.44757,2.40061c-2.858,1.17178 -5.4147,1.93614 -8.02481,2.40059c-17.01424,3.02748 -34.17544,5.3838 -51.02302,9.14825c-16.06208,3.58891 -31.78913,8.65079 -45.01925,19.49922c-4.59735,-2.94232 -8.64668,-6.3222 -13.27853,-8.40927c-19.8057,-8.92422 -40.64077,-14.24852 -62.14729,-17.27364c-11.47275,-1.61376 -22.82909,-4.05523 -34.23798,-6.12313m127.16003,-47.21231c-1.45639,-1.80396 -2.92468,-3.59845 -4.36718,-5.41346c-7.92951,-9.97708 -25.14353,-10.02043 -34.03379,2.40528c-8.79333,12.29025 -9.13656,28.36374 -0.91867,41.23616c5.14807,8.06389 12.40894,12.26632 21.80597,11.02048c9.51042,-1.26089 15.65564,-7.48267 19.20404,-16.22614c4.45133,-10.96832 3.64063,-21.76972 -1.69037,-33.02232z" fill="#FDCA2C"/>
  <path id="svg_3" d="m61.51836,155.81778c11.78529,2.08159 23.14163,4.52306 34.61438,6.13682c21.50652,3.02512 42.34159,8.34942 62.14729,17.27364c4.63185,2.08707 8.68118,5.46695 13.30368,8.88814c0.04707,19.7211 -0.211,38.80608 -0.46906,57.89107c-4.6441,0.05349 -9.29937,0.30191 -13.92523,0.03683c-1.31764,-0.07552 -3.06483,-1.35521 -3.74424,-2.56982c-11.09055,-19.82653 -28.65818,-32.40908 -48.10485,-42.67606c-15.09458,-7.96927 -30.67753,-15.0103 -45.81898,-22.8949c-16.24906,-8.46135 -31.66074,-18.25908 -43.77923,-32.31622c-3.38712,-3.92897 -5.93537,-8.58115 -8.46307,-13.41171c17.40291,9.41084 34.66325,18.74393 54.23931,23.64221z" fill="#52AED8"/>
  <path id="svg_4" d="m171.56277,246.09949c-0.19006,-19.17703 0.06801,-38.26201 0.30094,-57.82587c12.92497,-11.48454 28.65202,-16.54642 44.7141,-20.13533c16.84758,-3.76445 34.00878,-6.12077 51.02302,-9.14825c2.61011,-0.46445 5.16681,-1.22881 8.09759,-2.03168c15.67707,-3.12715 29.67243,-9.54053 43.33124,-16.79364c5.05109,-2.68225 9.9957,-5.56514 15.3364,-8.55078c-3.97861,12.60508 -18.36139,25.01628 -26.99704,31.10109c-19.93869,14.0491 -42.12985,23.86978 -63.96021,34.45022c-19.41433,9.40947 -37.23372,21.27054 -50.32898,39.02043c-0.09842,0.13343 -0.283,0.23284 -0.32168,0.37658c-3.08655,11.46728 -12.18004,9.98098 -21.19538,9.53723z" fill="#2F82BF"/>
  <path id="svg_5" d="m74.63312,225.63574c-1.61646,-0.68945 -3.52648,-1.12159 -3.86776,-2.1006c-3.57499,-10.25522 -6.89874,-20.59802 -9.52534,-31.3502c21.39172,7.93093 40.71057,18.35687 57.81625,33.45423c-14.66281,0 -29.32563,0 -44.42315,-0.00343z" fill="#E97C06"/>
  <path id="svg_6" d="m272.40686,214.50685c-0.23926,0.68308 -0.31042,1.00905 -0.40674,1.32741c-2.96814,9.81299 -2.9685,9.81229 -13.23108,9.81174c-12.10074,-0.00065 -24.20147,-0.00014 -36.53186,-0.58768c16.57166,-14.20252 35.45276,-24.31392 56.74744,-33.39108c-2.35282,8.23625 -4.38712,15.3576 -6.57776,22.83961z" fill="#E97C06"/>
  <path id="svg_7" d="m254.00896,91.18379c-3.17261,3.37763 -6.5584,4.45848 -9.74135,1.10402c-3.23499,-3.40929 -1.47281,-6.56382 1.34674,-9.5415c9.0177,-9.52339 17.92398,-19.15238 26.86188,-28.75121c2.6651,-2.86215 5.63107,-4.43911 9.04171,-1.3895c3.28067,2.93335 2.69968,6.10831 -0.10238,9.11842c-9.05402,9.72633 -18.10874,19.45203 -27.4066,29.45977z" fill="#F8C62E"/>
  <path id="svg_8" d="m31.38731,96.74641c11.38818,5.52356 22.44746,10.85561 33.45473,16.29296c3.03948,1.50144 3.90994,4.22289 2.37108,7.12534c-1.55588,2.93456 -4.31601,4.2975 -7.57559,2.82379c-7.70543,-3.48376 -15.33189,-7.14321 -22.97113,-10.77194c-4.79771,-2.27897 -9.5464,-4.66111 -14.34346,-6.94146c-4.53385,-2.15521 -6.14143,-5.16193 -4.44592,-8.50026c1.95039,-3.8402 4.91701,-4.49956 9.66929,-2.11193c1.18782,0.59679 2.32956,1.28535 3.841,2.0835z" fill="#F7C62E"/>
  <path id="svg_9" d="m280.8786,125.86644c-5.57931,2.86069 -8.15341,2.46719 -10.00424,-1.31722c-1.83774,-3.75755 -0.49783,-6.76563 4.19104,-9.05854c11.63107,-5.68772 23.27463,-11.35038 34.9397,-16.96806c4.60519,-2.21776 8.20065,-1.58399 9.58618,1.51376c1.63183,3.64844 0.16028,6.81645 -4.39472,9.06009c-11.30835,5.57016 -22.64752,11.07772 -34.31796,16.76997z" fill="#F7C62E"/>
  <path id="svg_10" d="m129.16351,47.72348c1.44498,3.591 2.71872,6.83429 4.06565,10.04689c1.48468,3.5412 0.60362,6.36453 -2.90004,7.80969c-3.58908,1.4804 -6.7932,0.32482 -8.21367,-3.334c-4.44063,-11.43807 -8.62426,-22.97598 -12.89777,-34.47881c-0.63396,-1.70644 -1.30636,-3.40661 -1.80185,-5.15479c-0.96904,-3.41905 -0.51317,-6.49868 3.34035,-7.61013c3.53657,-1.02004 6.46701,-0.23468 7.89906,3.84026c3.35356,9.5427 6.90058,19.01741 10.50827,28.88089z" fill="#F8C62E"/>
  <path id="svg_11" d="m214.11835,68.5178c-6.86599,0.69108 -9.75147,-2.20862 -7.62502,-8.24564c4.73459,-13.44145 9.87677,-26.74939 15.31986,-39.91871c0.69177,-1.67376 4.34588,-3.23764 6.31469,-2.919c1.59606,0.25831 3.28536,3.26134 3.87993,5.34725c0.48505,1.70168 -0.32965,3.94312 -1.01156,5.78065c-4.38372,11.8128 -8.83794,23.6004 -13.41512,35.33932c-0.63383,1.62555 -2.07359,2.93686 -3.46278,4.61613z" fill="#F8C72E"/>
  <path id="svg_12" d="m60.99294,62.99914c-2.01084,-2.23718 -4.4058,-3.90328 -5.48237,-6.19006c-0.96947,-2.05925 -1.41168,-5.35546 -0.37361,-7.06761c0.87785,-1.44788 4.19308,-1.78195 6.45993,-1.87569c1.19813,-0.04956 2.67553,1.26261 3.66114,2.30559c9.12489,9.65601 18.17497,19.38276 27.23468,29.10024c2.20278,2.36271 3.7289,5.29152 1.46031,8.00105c-1.295,1.5467 -4.04944,2.30801 -6.23021,2.50668c-1.23436,0.11244 -2.84378,-1.43138 -3.93161,-2.56702c-7.58778,-7.9213 -15.08329,-15.93098 -22.79826,-24.21318z" fill="#F8C62E"/>
  <path id="svg_13" d="m175.29117,14.35104c0.00915,13.60293 0.0467,26.74744 0.00064,39.89167c-0.02057,5.86351 -1.75125,8.27433 -5.81542,7.93697c-4.81158,-0.3994 -5.56195,-3.86641 -5.54803,-7.88572c0.04611,-13.31062 -0.04849,-26.62191 0.04126,-39.93207c0.03683,-5.4638 3.625,-8.48003 7.82381,-6.2924c1.71089,0.89139 2.35994,3.82084 3.49774,6.28155z" fill="#FDCA2C"/>
 </g>
</svg>