<svg xmlns="http://www.w3.org/2000/svg" viewBox="0 0 1358.04 184.5"><defs><style>.cls-1{fill:#fff;}.cls-2{fill:#0245b9;}</style></defs><title>Scaler logo color</title><g id="Layer_2" data-name="Layer 2"><g id="Layer_1-2" data-name="Layer 1"><path d="M92.29,69.2c-32.54-5.83-38-10.54-38-18.9,0-12.85,15.32-15.54,28.18-15.54,26.05,0,32.25,9.4,34.87,18.61l.43,1.48h45.94l-.22-2.24C162.26,40.27,152.94,0,83.77,0,37.36,0,7.38,21.35,7.38,54.38c0,22.16,8.82,44.18,72.83,55.13,36.22,6.15,42.85,12.53,42.85,22.88,0,7.46-3.39,17.38-32.72,17.38-24.92,0-38.43-7.22-43.81-23.41l-.46-1.4H0l.4,2.38c8.37,49.73,57.46,57.16,86,57.16,75.64,0,83.81-39.45,83.81-56.4,0-27.73-13-47.25-77.9-58.9"/><path class="cls-1" d="M1339.48,109.1a12.41,12.41,0,0,1-.31-2q0-49.6,0-99.21a11.2,11.2,0,0,0-.63-2.6c1.13-.3,1,.43,1,1.15q0,20.15,0,40.31Z"/><path class="cls-2" d="M1177.3,183.21a13.54,13.54,0,0,1-.46-2.4q0-47.62,0-95.25c0-1.58-.08-3.17,0-4.74a7.54,7.54,0,0,1,2.53-5.14c6.48-6.38,13-12.72,19.45-19.14q19.2-19.18,38.34-38.44,7.19-7.19,14.44-14.28a17,17,0,0,1,2.29-1.6h103.23a11.22,11.22,0,0,1,.61,2.53q0,48.26,0,96.5a12,12,0,0,0,.31,2v3.17c-1.07,1.2-2.08,2.46-3.21,3.6q-6.64,6.7-13.34,13.34c-5.68,5.61-11.43,11.15-17.08,16.78q-20.13,20.06-40.2,40.15c-1,1.06-2.24,2-3.36,3Zm104.19-11.31.75.53c2.13-2.35,4.17-4.8,6.4-7.05q13.52-13.55,27.13-27a4.65,4.65,0,0,0,1.48-3.64q-.06-44.13,0-88.25c0-.32,0-.64,0-1,.06-1.44-.37-2.1-2.07-2.1q-44.62.09-89.24,0a4.83,4.83,0,0,0-3.66,1.53q-15.93,16-31.88,31.88c-.35.35-.66.74-1.25,1.4h92.37Zm-31-41.55V112.09c0-2.59-.1-2.7-2.65-2.7h-36.36c-.48,0-1,.06-1.43,0-1.5,0-2,.72-2,2.17q.06,18.74,0,37.46c0,1.58.65,2.25,2.14,2.22,1.85,0,3.69-.14,5.54-.14q16.37,0,32.72,0c2,0,2,0,2-2.06q0-9.36,0-18.73"/><path d="M565.26,183.21H513.17l-13.54-40.87H433.12l-13.83,40.87H368.38L436.65,2.15h60.63Zm-122.72-73h47.68L466.38,37Z"/><polygon points="638.54 146.72 735.95 146.72 735.95 183.21 587.92 183.21 587.92 2.15 638.54 2.15 638.54 146.72"/><polygon points="759.6 183.21 759.6 2.15 910.86 2.15 910.86 38.63 810.21 38.63 810.21 75.39 904.36 75.39 904.36 109.69 810.21 109.69 810.21 146.72 910.59 146.72 910.59 183.21 759.6 183.21"/><path d="M1027,2.15q34.73,0,54,15.22t19.27,40.47q0,27.71-19.13,42.25t-53.85,14.54l-4.71,2.47H984.06v66.11H934.32V2.15ZM1020,83.63q14.71,0,22.07-5.49t7.36-17.56q0-11.79-7.36-17.28T1020,37.81h-35.9V83.63Zm29.73,9.87,62.09,89.71h-55.92l-49.73-79.28Z"/><path d="M277.21,144.11c-27.44,0-48.43-20.78-48.43-51.05S249.77,42,277.21,42c18.66,0,33.33,8,40.55,25.58l40.7-13.79C345.33,15.58,311.05,2.65,277.21,2.65c-55.49,0-93.63,36.73-93.63,90.41,0,53.47,38.14,90.4,93.63,90.4,43.83,0,78.1-21.19,85.56-73.85H319.39c-6.46,21-22,34.5-42.18,34.5"/></g></g></svg>